{
	"asset":{
		"generator":"Khronos glTF Blender I/O v4.2.70",
		"version":"2.0"
	},
	"extensionsUsed":[
		"KHR_materials_specular"
	],
	"scene":0,
	"scenes":[
		{
			"name":"Scene",
			"nodes":[
				0
			]
		}
	],
	"nodes":[
		{
			"mesh":0,
			"name":"adidasssss",
			"rotation":[
				0.00048791762674227357,
				0.7123339176177979,
				0.011997717432677746,
				0.7017379999160767
			],
			"scale":[
				0.020000005140900612,
				0.020000005140900612,
				0.020000005140900612
			],
			"translation":[
				2.3835268020629883,
				-0.1494579315185547,
				2.6999635696411133
			]
		}
	],
	"materials":[
		{
			"doubleSided":true,
			"extensions":{
				"KHR_materials_specular":{
					"specularFactor":0
				}
			},
			"name":"adidasssss_tex0",
			"pbrMetallicRoughness":{
				"baseColorTexture":{
					"index":0
				},
				"metallicFactor":0
			}
		},
		{
			"doubleSided":true,
			"extensions":{
				"KHR_materials_specular":{
					"specularFactor":0
				}
			},
			"name":"adidasssss_tex1",
			"pbrMetallicRoughness":{
				"baseColorTexture":{
					"index":1
				},
				"metallicFactor":0
			}
		}
	],
	"meshes":[
		{
			"name":"adidasssss",
			"primitives":[
				{
					"attributes":{
						"POSITION":0,
						"NORMAL":1,
						"TEXCOORD_0":2
					},
					"indices":3,
					"material":0
				},
				{
					"attributes":{
						"POSITION":4,
						"NORMAL":5,
						"TEXCOORD_0":6
					},
					"indices":7,
					"material":1
				}
			]
		}
	],
	"textures":[
		{
			"sampler":0,
			"source":0
		},
		{
			"sampler":0,
			"source":1
		}
	],
	"images":[
		{
			"mimeType":"image/jpeg",
			"name":"adidasssss_tex0",
			"uri":"adidasssss_tex0.jpg"
		},
		{
			"mimeType":"image/jpeg",
			"name":"adidasssss_tex1",
			"uri":"adidasssss_tex1.jpg"
		}
	],
	"accessors":[
		{
			"bufferView":0,
			"componentType":5126,
			"count":350534,
			"max":[
				7.459433078765869,
				26.6302433013916,
				18.397197723388672
			],
			"min":[
				-8.487807273864746,
				13.866615295410156,
				-15.400325775146484
			],
			"type":"VEC3"
		},
		{
			"bufferView":1,
			"componentType":5126,
			"count":350534,
			"type":"VEC3"
		},
		{
			"bufferView":2,
			"componentType":5126,
			"count":350534,
			"type":"VEC2"
		},
		{
			"bufferView":3,
			"componentType":5125,
			"count":702066,
			"type":"SCALAR"
		},
		{
			"bufferView":4,
			"componentType":5126,
			"count":326594,
			"max":[
				7.459433078765869,
				26.64055633544922,
				18.409709930419922
			],
			"min":[
				-8.613958358764648,
				13.866717338562012,
				-15.491618156433105
			],
			"type":"VEC3"
		},
		{
			"bufferView":5,
			"componentType":5126,
			"count":326594,
			"type":"VEC3"
		},
		{
			"bufferView":6,
			"componentType":5126,
			"count":326594,
			"type":"VEC2"
		},
		{
			"bufferView":7,
			"componentType":5125,
			"count":605973,
			"type":"SCALAR"
		}
	],
	"bufferViews":[
		{
			"buffer":0,
			"byteLength":4206408,
			"byteOffset":0,
			"target":34962
		},
		{
			"buffer":0,
			"byteLength":4206408,
			"byteOffset":4206408,
			"target":34962
		},
		{
			"buffer":0,
			"byteLength":2804272,
			"byteOffset":8412816,
			"target":34962
		},
		{
			"buffer":0,
			"byteLength":2808264,
			"byteOffset":11217088,
			"target":34963
		},
		{
			"buffer":0,
			"byteLength":3919128,
			"byteOffset":14025352,
			"target":34962
		},
		{
			"buffer":0,
			"byteLength":3919128,
			"byteOffset":17944480,
			"target":34962
		},
		{
			"buffer":0,
			"byteLength":2612752,
			"byteOffset":21863608,
			"target":34962
		},
		{
			"buffer":0,
			"byteLength":2423892,
			"byteOffset":24476360,
			"target":34963
		}
	],
	"samplers":[
		{
			"magFilter":9729,
			"minFilter":9987
		}
	],
	"buffers":[
		{
			"byteLength":26900252,
			"uri":"kenka.bin"
		}
	]
}
